<?xml version="1.0" encoding="utf-8"?>
<!-- Generator: Adobe Illustrator 22.0.1, SVG Export Plug-In . SVG Version: 6.00 Build 0)  -->
<svg version="1.1" id="图层_1" xmlns="http://www.w3.org/2000/svg" xmlns:xlink="http://www.w3.org/1999/xlink" x="0px" y="0px"
	 viewBox="0 0 306 87" style="enable-background:new 0 0 306 87;" xml:space="preserve">
<style type="text/css">
	.st0{fill:#AAA9A9;}
	.st1{fill:#565656;}
	.st2{fill-rule:evenodd;clip-rule:evenodd;fill:#D63030;}
</style>
<g>
	<path class="st0" d="M163.1,68.4c-1,0-1.8-0.3-2.6-1.1c-0.7-0.7-1.1-1.6-1.1-2.7c0-1.1,0.3-2,1-2.6c0.7-0.7,1.6-1,2.7-1
		c1.1,0,1.9,0.3,2.6,1c0.7,0.7,1,1.6,1,2.6c0,1.1-0.3,2-1,2.7C165.1,68.1,164.2,68.4,163.1,68.4z"/>
	<path class="st0" d="M191.4,67.6c-4,0-7.5-0.8-10.4-2.4c-2.9-1.6-5.2-3.8-6.7-6.7c-1.6-3-2.4-6.5-2.4-10.5c0-4.2,0.9-8,2.7-11.3
		c1.8-3.2,4.3-5.8,7.5-7.6c3.3-1.8,7-2.7,11.1-2.7c3.8,0,6.1,0.5,7.8,1l0,4.4c-2.1-0.9-4.4-1.3-7-1.3c-4.8,0-8.7,1.6-11.6,4.7
		c-2.9,3.1-4.4,7.1-4.4,12c0,4.9,1.4,8.8,4.2,11.7c2.8,3,6.6,4.5,11.3,4.5c3.5,0,5.9-0.8,7.5-1.5v4
		C198.2,67.2,195.4,67.6,191.4,67.6z"/>
	<path class="st0" d="M224.1,67.6c-3.5,0-6.6-0.8-9.4-2.5c-2.8-1.7-4.9-4-6.4-7c-1.5-3-2.3-6.6-2.3-10.5c0-4.2,0.8-8,2.4-11.2
		c1.5-3.2,3.8-5.6,6.6-7.4c2.8-1.7,6.2-2.6,9.9-2.6c3.4,0,6.6,0.8,9.3,2.5c2.7,1.6,4.8,4,6.3,7c1.5,3.1,2.3,6.7,2.3,10.8
		c0,4.1-0.8,7.9-2.4,11.1c-1.5,3.1-3.8,5.6-6.6,7.3C230.9,66.8,227.7,67.6,224.1,67.6z M224.5,30.6c-3.9,0-7,1.6-9.3,4.8
		c-2.2,3-3.3,6.9-3.3,11.7c0,4.8,1.1,8.7,3.2,11.7c2.3,3.1,5.3,4.7,9.1,4.7c3.8,0,6.9-1.5,9.2-4.6c2.1-2.9,3.2-6.8,3.2-11.6
		c0-5-1-9-3-11.9C231.4,32.2,228.3,30.6,224.5,30.6z"/>
	<path class="st1" d="M138.4,68.7c-4.1,0-7.5-0.7-10.3-2v-7c3.2,2.2,6.8,3.4,10.6,3.4c2.3,0,4.1-0.5,5.4-1.4c1.4-1,2.1-2.4,2.1-4.1
		c0-1.6-0.7-3.1-2-4.3c-1.2-1.1-3.4-2.4-6.8-4c-6.3-3-9.5-7-9.5-11.9c0-3.6,1.3-6.5,4-8.7c2.7-2.2,6.4-3.3,11-3.3
		c3.8,0,7,0.5,9.6,1.4v6.5c-2.7-1.5-5.8-2.2-9.1-2.2c-2.1,0-3.9,0.5-5.2,1.4c-1.4,1-2.1,2.4-2.1,4.1c0,1.7,0.6,3.1,1.7,4.2
		c1,1,2.9,2.1,5.8,3.5c4,1.9,6.9,3.8,8.5,5.7c1.6,1.8,2.4,4.1,2.4,6.8c0,3.8-1.4,6.8-4.1,8.8C147.5,67.7,143.5,68.7,138.4,68.7z"/>
	<g>
		<path class="st2" d="M76.5,30.7h-38c-3.3,0-6-2.7-6-6s2.7-6,6-6h32.2C64.2,12,55,7.7,44.8,7.7c-19.9,0-36,16.1-36,36
			c0,19.9,16.1,36,36,36s36-16.1,36-36c0-4.7-0.9-9.2-2.5-13.3C77.7,30.6,77.1,30.7,76.5,30.7z M52.4,63.7c0,2.8-2.2,5-5,5h-12
			c-2.8,0-5-2.2-5-5v0c0-2.8,2.2-5,5-5h12C50.2,58.7,52.4,61,52.4,63.7L52.4,63.7z M65.4,44.7c0,3.2-2.6,5.8-5.8,5.8H37.2
			c-3.2,0-5.8-2.6-5.8-5.8v0c0-3.2,2.6-5.7,5.8-5.7h22.5C62.9,39,65.4,41.6,65.4,44.7L65.4,44.7z"/>
		<path class="st2" d="M82.5,24.7c0-3.3-2.7-6-6-6h-5.8c3.2,3.3,5.8,7.3,7.6,11.7C80.7,29.7,82.5,27.4,82.5,24.7z"/>
	</g>
	<polygon class="st1" points="96.5,68.7 96.5,25.3 123.9,25.3 123.9,32.5 104.8,32.5 104.8,43.8 121,43.8 121,51 104.8,51 
		104.8,68.7 	"/>
	<path class="st0" d="M285.8,67.6V38.8l0-5l-0.6-0.1l-0.6,1.6l-11.2,32.3h-6.1l-11.2-32.2l-0.6-1.6l-0.6,0.1l0,5v28.8h-5.4V26.4h8
		c2.1,7.7,8.7,25.7,11.5,33.1c0.1,0.3,0.2,0.5,0.2,0.6l1.1,2.9l12.7-36.5h8.1v41.2H285.8z"/>
</g>
</svg>
